<?xml version="1.0" encoding="UTF-8" standalone="no"?>
<!-- Created with Inkscape (http://www.inkscape.org/) -->

<svg
   xmlns:dc="http://purl.org/dc/elements/1.1/"
   xmlns:cc="http://creativecommons.org/ns#"
   xmlns:rdf="http://www.w3.org/1999/02/22-rdf-syntax-ns#"
   xmlns:svg="http://www.w3.org/2000/svg"
   xmlns="http://www.w3.org/2000/svg"
   xmlns:sodipodi="http://sodipodi.sourceforge.net/DTD/sodipodi-0.dtd"
   xmlns:inkscape="http://www.inkscape.org/namespaces/inkscape"
   width="727.26862"
   height="672.27911"
   id="svg3621"
   version="1.1"
   inkscape:version="0.47 r22583"
   sodipodi:docname="New document 2">
  <defs
     id="defs3623">
    <inkscape:perspective
       sodipodi:type="inkscape:persp3d"
       inkscape:vp_x="0 : 495 : 1"
       inkscape:vp_y="0 : 1000 : 0"
       inkscape:vp_z="765 : 495 : 1"
       inkscape:persp3d-origin="382.5 : 330 : 1"
       id="perspective3630" />
    <inkscape:perspective
       id="perspective3640"
       inkscape:persp3d-origin="0.5 : 0.33333333 : 1"
       inkscape:vp_z="1 : 0.5 : 1"
       inkscape:vp_y="0 : 1000 : 0"
       inkscape:vp_x="0 : 0.5 : 1"
       sodipodi:type="inkscape:persp3d" />
  </defs>
  <sodipodi:namedview
     inkscape:document-units="in"
     pagecolor="#ffffff"
     bordercolor="#666666"
     borderopacity="1.0"
     inkscape:pageopacity="0.0"
     inkscape:pageshadow="2"
     inkscape:zoom="0.12727922"
     inkscape:cx="43.087739"
     inkscape:cy="745.51268"
     inkscape:current-layer="layer1"
     id="namedview3625"
     showgrid="false"
     inkscape:window-width="550"
     inkscape:window-height="483"
     inkscape:window-x="865"
     inkscape:window-y="172"
     inkscape:window-maximized="0" />
  <metadata
     id="metadata3627">
    <rdf:RDF>
      <cc:Work
         rdf:about="">
        <dc:format>image/svg+xml</dc:format>
        <dc:type
           rdf:resource="http://purl.org/dc/dcmitype/StillImage" />
        <dc:title></dc:title>
      </cc:Work>
    </rdf:RDF>
  </metadata>
  <g
     inkscape:label="Layer 1"
     inkscape:groupmode="layer"
     id="layer1"
     transform="translate(-30.319511,-318.66524)">
    <g
       transform="matrix(6.8233029,0,0,6.8233029,-47.527415,191.69631)"
       style="display:inline"
       id="g3612">
      <path
         style="fill:none;stroke:#000000;stroke-width:6;stroke-linecap:round;stroke-linejoin:round;stroke-miterlimit:4;stroke-opacity:1;stroke-dasharray:none;stroke-dashoffset:0;marker:none;visibility:visible;display:inline;overflow:visible;enable-background:accumulate"
         d="m 15.454482,21.608133 4.87901,25.876177 c -3.778648,6.361791 -5.924512,13.629688 -5.924512,21.345668 0,25.01683 22.513356,45.305092 50.271226,45.305092 27.757872,0 50.314794,-20.288261 50.314784,-45.305092 0,-7.474484 -2.05884,-14.518621 -5.61957,-20.735792 l 4.87901,-25.832614 -20.56154,9.540207 c -8.195927,-5.225134 -18.21698,-8.320455 -29.012684,-8.320455 -10.481235,0 -20.213468,2.890921 -28.272119,7.841266 L 15.454482,21.608133 z"
         id="path3612" />
      <path
         id="path3478"
         d="m 15.454482,21.608133 4.87901,25.876177 c -3.778648,6.361791 -5.924512,13.629688 -5.924512,21.345668 0,25.01683 22.513356,45.305092 50.271226,45.305092 27.757872,0 50.314794,-20.288261 50.314784,-45.305092 0,-7.474484 -2.05884,-14.518621 -5.61957,-20.735792 l 4.87901,-25.832614 -20.56154,9.540207 c -8.195927,-5.225134 -18.21698,-8.320455 -29.012684,-8.320455 -10.481235,0 -20.213468,2.890921 -28.272119,7.841266 L 15.454482,21.608133 z"
         style="fill:#ffffff;fill-opacity:1;fill-rule:nonzero;stroke:#000000;stroke-width:3.97822046;stroke-linecap:round;stroke-linejoin:round;stroke-miterlimit:4;stroke-opacity:1;stroke-dashoffset:0;marker:none;visibility:visible;display:inline;overflow:visible;enable-background:accumulate" />
      <path
         transform="matrix(1.9387847,0.8723032,-0.8723032,1.9387847,-50.299173,-95.028718)"
         d="m 76,48 c 0,2.209139 -1.790861,4 -4,4 -2.209139,0 -4,-1.790861 -4,-4 0,-2.209139 1.790861,-4 4,-4 2.209139,0 4,1.790861 4,4 z"
         sodipodi:ry="4"
         sodipodi:rx="4"
         sodipodi:cy="48"
         sodipodi:cx="72"
         id="path3183"
         style="fill:#000000;fill-opacity:1;fill-rule:nonzero;stroke:none;stroke-width:3;marker:none;visibility:visible;display:inline;overflow:visible;enable-background:accumulate"
         sodipodi:type="arc" />
      <path
         sodipodi:type="arc"
         style="fill:#ffffff;fill-opacity:1;fill-rule:nonzero;stroke:none;stroke-width:3;marker:none;visibility:visible;display:inline;overflow:visible;enable-background:accumulate"
         id="path3185"
         sodipodi:cx="72"
         sodipodi:cy="48"
         sodipodi:rx="4"
         sodipodi:ry="4"
         d="m 76,48 c 0,2.209139 -1.790861,4 -4,4 -2.209139,0 -4,-1.790861 -4,-4 0,-2.209139 1.790861,-4 4,-4 2.209139,0 4,1.790861 4,4 z"
         transform="matrix(0.76796018,0.3455227,-0.3455227,0.76796018,11.205195,-1.3028773)" />
      <path
         sodipodi:type="arc"
         style="fill:#000000;fill-opacity:1;fill-rule:nonzero;stroke:none;stroke-width:3;marker:none;visibility:visible;display:inline;overflow:visible;enable-background:accumulate"
         id="path3195"
         sodipodi:cx="72"
         sodipodi:cy="48"
         sodipodi:rx="4"
         sodipodi:ry="4"
         d="m 76,48 c 0,2.209139 -1.790861,4 -4,4 -2.209139,0 -4,-1.790861 -4,-4 0,-2.209139 1.790861,-4 4,-4 2.209139,0 4,1.790861 4,4 z"
         transform="matrix(1.9387847,0.8723032,-0.8723032,1.9387847,-15.389114,-95.100023)" />
      <path
         transform="matrix(0.76796018,0.3455227,-0.3455227,0.76796018,46.115254,-1.3741825)"
         d="m 76,48 c 0,2.209139 -1.790861,4 -4,4 -2.209139,0 -4,-1.790861 -4,-4 0,-2.209139 1.790861,-4 4,-4 2.209139,0 4,1.790861 4,4 z"
         sodipodi:ry="4"
         sodipodi:rx="4"
         sodipodi:cy="48"
         sodipodi:cx="72"
         id="path3197"
         style="fill:#ffffff;fill-opacity:1;fill-rule:nonzero;stroke:none;stroke-width:3;marker:none;visibility:visible;display:inline;overflow:visible;enable-background:accumulate"
         sodipodi:type="arc" />
      <path
         sodipodi:nodetypes="csccsc"
         id="path3588"
         d="m 41.227265,86.167888 c 0.719967,5.451035 3.959432,11.034628 11.152022,11.152022 9.559611,0.157939 17.383621,-10.25767 19.682469,-17.547324 -5.25863,-0.760828 -10.517261,-0.719286 -15.775892,-0.234083 2.29885,6.938529 10.415684,17.652328 18.397468,17.781407 7.656781,0.123823 10.288025,-4.910288 11.152022,-11.152022"
         style="fill:none;stroke:#000000;stroke-width:2.78800559;stroke-linecap:round;stroke-linejoin:round;stroke-miterlimit:4;stroke-opacity:1;stroke-dasharray:none" />
    </g>
  </g>
</svg>
