<?xml version="1.0" encoding="utf-8"?>
<!-- Generator: Adobe Illustrator 13.0.0, SVG Export Plug-In . SVG Version: 6.00 Build 14948)  -->
<!DOCTYPE svg PUBLIC "-//W3C//DTD SVG 1.1//EN" "http://www.w3.org/Graphics/SVG/1.1/DTD/svg11.dtd">
<svg version="1.1" xmlns="http://www.w3.org/2000/svg" xmlns:xlink="http://www.w3.org/1999/xlink" x="0px" y="0px" width="512px"
	 height="512px" viewBox="0 0 512 512" enable-background="new 0 0 512 512" xml:space="preserve">
<g id="Calque_1">
	<g display="none">
		<path display="inline" d="M230.176,232.755c0,10.115-8.59,18.313-19.188,18.313l0,0c-10.598,0-19.188-8.199-19.188-18.313v-73.249
			c0-10.114,8.59-18.313,19.188-18.313l0,0c10.598,0,19.188,8.199,19.188,18.313V232.755z"/>
		<path display="inline" d="M320.662,232.755c0,10.115-8.591,18.313-19.188,18.313l0,0c-10.598,0-19.188-8.199-19.188-18.313
			v-73.249c0-10.114,8.591-18.313,19.188-18.313l0,0c10.598,0,19.188,8.199,19.188,18.313V232.755z"/>
		<circle display="inline" fill="#FFFFFF" cx="216.158" cy="158.428" r="8.619"/>
		<circle display="inline" fill="#FFFFFF" cx="306.857" cy="158.428" r="8.616"/>
		<path display="inline" d="M219.607,331.21c0-16.649,16.398-30.158,36.624-30.158c20.223,0,36.621,13.509,36.621,30.158
			c0,16.663-16.396,30.17-36.621,30.17C236.005,361.38,219.607,347.873,219.607,331.21z"/>
	</g>
	<g display="none">
		<path display="inline" d="M93.346,167.905c0-15.464,12.535-28.012,28.012-28.012c15.464,0,28.006,12.548,28.006,28.012
			c0,15.464-12.542,28.012-28.006,28.012C105.881,195.917,93.346,183.369,93.346,167.905z"/>
		<path display="inline" d="M358.337,167.905c0-15.464,12.541-28.012,28.012-28.012s28.013,12.548,28.013,28.012
			c0,15.464-12.542,28.012-28.013,28.012S358.337,183.369,358.337,167.905z"/>
		<ellipse display="inline" fill="#FFFFFF" cx="132.125" cy="156.701" rx="8.622" ry="8.615"/>
		<path display="inline" fill="#FFFFFF" d="M389.567,156.701c0-4.759,3.861-8.615,8.622-8.615c4.766,0,8.621,3.856,8.621,8.615
			c0,4.759-3.855,8.616-8.621,8.616C393.43,165.317,389.567,161.46,389.567,156.701z"/>
		
			<line display="inline" fill="none" stroke="#000000" stroke-width="1.5" stroke-linecap="round" x1="83.014" y1="201.076" x2="166.601" y2="184.489"/>
		
			<line display="inline" fill="none" stroke="#000000" stroke-width="1.5" stroke-linecap="round" x1="426.201" y1="200.43" x2="342.62" y2="183.842"/>
		<path display="inline" d="M140.962,257.305c2.285,61.049,52.362,109.877,113.966,109.877c61.605,0,111.678-48.828,113.962-109.877
			H140.962z"/>
	</g>
	<g display="none">
		<path display="inline" d="M180.96,289.148c-27.109,28.756-74.801,27.834-106.493-2.06l0,0
			c-31.716-29.886-35.434-77.433-8.319-106.189l36.993-39.234c27.109-28.756,74.795-27.847,106.493,2.045l0,0
			c31.71,29.893,35.428,77.433,8.312,106.189L180.96,289.148z"/>
		<circle display="inline" fill="#FFFFFF" cx="91.313" cy="232.316" r="17.231"/>
		<path display="inline" fill="#FFFFFF" d="M122.91,175.523c-14.164,14.485-12.421,39.146,3.882,55.076l0,0
			c16.316,15.931,41.026,17.105,55.196,2.626l19.333-19.756c14.17-14.486,12.428-39.14-3.881-55.077l0,0
			c-16.316-15.931-41.027-17.105-55.19-2.62L122.91,175.523z"/>
		<path display="inline" d="M331.506,289.148c27.108,28.756,74.801,27.834,106.485-2.06l0,0
			c31.724-29.886,35.435-77.433,8.319-106.189l-36.987-39.234c-27.109-28.756-74.801-27.847-106.499,2.045l0,0
			c-31.71,29.893-35.422,77.433-8.307,106.189L331.506,289.148z"/>
		<path display="inline" fill="#FFFFFF" d="M438.383,232.316c0-9.518-7.719-17.231-17.23-17.231
			c-9.524,0-17.231,7.713-17.231,17.231c0,9.519,7.707,17.238,17.231,17.238C430.664,249.554,438.383,241.835,438.383,232.316z"/>
		<path display="inline" fill="#FFFFFF" d="M389.549,175.523c14.163,14.485,12.428,39.146-3.882,55.076l0,0
			c-16.316,15.931-41.021,17.105-55.196,2.626l-19.327-19.756c-14.177-14.486-12.435-39.14,3.876-55.077l0,0
			c16.322-15.931,41.026-17.105,55.189-2.62L389.549,175.523z"/>
		<path display="inline" fill="#020202" d="M289.191,351.68c-2.285,17.533-14,30.934-28.113,30.934
			c-14.104,0-25.824-13.399-28.109-30.934h-9.751c2.5,22.898,18.506,40.629,37.861,40.629c19.364,0,35.371-17.729,37.871-40.629
			H289.191z"/>
	</g>
	<g>
		<path fill="#020202" d="M254.177,301.48c-2.285,17.535-14,30.929-28.113,30.929c-14.1,0-25.827-13.394-28.112-30.929h-9.745
			c2.499,22.898,18.506,40.623,37.857,40.623c19.365,0,35.368-17.725,37.868-40.623H254.177z"/>
		<path fill="#020202" d="M320.965,301.48c-2.285,17.535-14,30.929-28.113,30.929c-14.1,0-25.826-13.394-28.111-30.929h-9.742
			c2.499,22.898,18.503,40.623,37.854,40.623c19.365,0,35.371-17.725,37.871-40.623H320.965z"/>
		<path d="M95.719,188.374c0-15.464,12.542-28.012,28.006-28.012c15.477,0,28.012,12.548,28.012,28.012
			s-12.535,28.012-28.012,28.012C108.261,216.386,95.719,203.838,95.719,188.374z"/>
		<path d="M360.717,188.374c0-15.464,12.528-28.012,28.005-28.012c15.471,0,28.013,12.548,28.013,28.012
			s-12.542,28.012-28.013,28.012C373.245,216.386,360.717,203.838,360.717,188.374z"/>
		<circle fill="#FFFFFF" cx="134.499" cy="177.17" r="8.616"/>
		<path fill="#FFFFFF" d="M391.94,177.17c0-4.759,3.862-8.616,8.622-8.616s8.628,3.857,8.628,8.616c0,4.759-3.868,8.616-8.628,8.616
			C395.804,185.786,391.94,181.93,391.94,177.17z"/>
	</g>
</g>
<g id="Calque_2">
</g>
</svg>
