<?xml version="1.0" encoding="utf-8"?>
<!-- Generator: Adobe Illustrator 13.0.0, SVG Export Plug-In . SVG Version: 6.00 Build 14948)  -->
<!DOCTYPE svg PUBLIC "-//W3C//DTD SVG 1.1//EN" "http://www.w3.org/Graphics/SVG/1.1/DTD/svg11.dtd">
<svg version="1.1" id="Calque_1" xmlns="http://www.w3.org/2000/svg" xmlns:xlink="http://www.w3.org/1999/xlink" x="0px" y="0px"
	 width="512px" height="512px" viewBox="0 0 512 512" enable-background="new 0 0 512 512" xml:space="preserve">
<path d="M107.709,202.75c0-14.055,11.388-25.456,25.456-25.456c14.056,0,25.45,11.4,25.45,25.456
	c0,14.059-11.394,25.457-25.45,25.457C119.097,228.206,107.709,216.809,107.709,202.75"/>
<path d="M348.526,202.75c0-14.055,11.386-25.456,25.456-25.456c14.053,0,25.444,11.4,25.444,25.456
	c0,14.059-11.392,25.457-25.444,25.457C359.912,228.206,348.526,216.809,348.526,202.75"/>
<path fill="#FFFFFF" d="M135.115,192.568c0-4.322,3.514-7.829,7.835-7.829s7.835,3.507,7.835,7.829c0,4.322-3.513,7.83-7.835,7.83
	S135.115,196.891,135.115,192.568"/>
<path fill="#FFFFFF" d="M376.902,192.568c0-4.322,3.516-7.829,7.84-7.829c4.32,0,7.836,3.507,7.836,7.829
	c0,4.322-3.516,7.83-7.836,7.83C380.418,200.398,376.902,196.891,376.902,192.568"/>
<line fill="none" stroke="#000000" stroke-width="8.8103" stroke-linecap="round" x1="98.319" y1="232.892" x2="174.282" y2="217.824"/>
<line fill="none" stroke="#000000" stroke-width="8.8103" stroke-linecap="round" x1="410.199" y1="232.307" x2="334.238" y2="217.233"/>
<path d="M150.98,283.992c2.079,55.472,47.587,99.851,103.569,99.851c55.982,0,101.485-44.379,103.567-99.851H150.98z"/>
</svg>
