<?xml version="1.0" encoding="utf-8"?>
<!-- Generator: Adobe Illustrator 13.0.0, SVG Export Plug-In . SVG Version: 6.00 Build 14948)  -->
<!DOCTYPE svg PUBLIC "-//W3C//DTD SVG 1.1//EN" "http://www.w3.org/Graphics/SVG/1.1/DTD/svg11.dtd">
<svg version="1.1" id="Calque_1" xmlns="http://www.w3.org/2000/svg" xmlns:xlink="http://www.w3.org/1999/xlink" x="0px" y="0px"
	 width="512px" height="512px" viewBox="0 0 512 512" enable-background="new 0 0 512 512" xml:space="preserve">
<path d="M188.061,304.999c-24.729,26.235-68.239,25.394-97.158-1.878c-28.933-27.26-32.325-70.643-7.589-96.878l33.752-35.792
	c24.729-26.24,68.237-25.408,97.158,1.863c28.93,27.271,32.315,70.644,7.583,96.878L188.061,304.999z"/>
<path fill="#FFFFFF" d="M90.554,253.15c0-8.683,7.034-15.72,15.721-15.72c8.686,0,15.72,7.037,15.72,15.72
	c0,8.684-7.034,15.726-15.72,15.726C97.588,268.876,90.554,261.834,90.554,253.15"/>
<path fill="#FFFFFF" d="M135.101,201.336c-12.918,13.216-11.332,35.714,3.544,50.248c14.882,14.534,37.424,15.605,50.357,2.396
	l17.634-18.023c12.925-13.215,11.341-35.71-3.544-50.245c-14.883-14.537-37.423-15.608-50.349-2.396L135.101,201.336z"/>
<path d="M325.405,304.999c24.727,26.235,68.237,25.394,97.155-1.878c28.937-27.26,32.328-70.643,7.59-96.878l-33.756-35.792
	c-24.727-26.24-68.23-25.408-97.154,1.863c-28.93,27.271-32.316,70.644-7.584,96.878L325.405,304.999z"/>
<path fill="#FFFFFF" d="M422.906,253.15c0-8.683-7.031-15.72-15.714-15.72c-8.69,0-15.722,7.037-15.722,15.72
	c0,8.684,7.031,15.726,15.722,15.726C415.875,268.876,422.906,261.834,422.906,253.15"/>
<path fill="#FFFFFF" d="M378.359,201.336c12.922,13.216,11.339,35.714-3.541,50.248c-14.886,14.534-37.424,15.605-50.356,2.396
	l-17.633-18.023c-12.933-13.215-11.344-35.71,3.541-50.245c14.886-14.537,37.424-15.608,50.352-2.396L378.359,201.336z"/>
<path fill="#020202" d="M286.802,362.047c-2.085,15.997-12.772,28.221-25.647,28.221c-12.864,0-23.563-12.224-25.642-28.221h-8.896
	c2.28,20.892,16.877,37.066,34.539,37.066c17.666,0,32.27-16.175,34.55-37.066H286.802z"/>
</svg>
