<?xml version="1.0" encoding="utf-8"?>
<!-- Generator: Adobe Illustrator 13.0.0, SVG Export Plug-In . SVG Version: 6.00 Build 14948)  -->
<!DOCTYPE svg PUBLIC "-//W3C//DTD SVG 1.1//EN" "http://www.w3.org/Graphics/SVG/1.1/DTD/svg11.dtd">
<svg version="1.1" id="Calque_1" xmlns="http://www.w3.org/2000/svg" xmlns:xlink="http://www.w3.org/1999/xlink" x="0px" y="0px"
	 width="512px" height="512px" viewBox="0 0 512 512" enable-background="new 0 0 512 512" xml:space="preserve">
<path d="M232.96,249.187c0,9.225-7.836,16.699-17.504,16.699c-9.662,0-17.506-7.474-17.506-16.699v-66.831
	c0-9.225,7.844-16.711,17.506-16.711c9.668,0,17.504,7.486,17.504,16.711V249.187z"/>
<path d="M315.513,249.187c0,9.225-7.838,16.699-17.506,16.699c-9.662,0-17.504-7.474-17.504-16.699v-66.831
	c0-9.225,7.842-16.711,17.504-16.711c9.668,0,17.506,7.486,17.506,16.711V249.187z"/>
<path fill="#FFFFFF" d="M212.312,181.377c0-4.342,3.519-7.866,7.855-7.866c4.348,0,7.866,3.524,7.866,7.866
	c0,4.336-3.518,7.854-7.866,7.854C215.831,189.231,212.312,185.713,212.312,181.377"/>
<path fill="#FFFFFF" d="M295.06,181.377c0-4.342,3.522-7.866,7.859-7.866c4.336,0,7.86,3.524,7.86,7.866
	c0,4.336-3.524,7.854-7.86,7.854C298.582,189.231,295.06,185.713,295.06,181.377"/>
<path d="M223.322,339.005c0-15.189,14.96-27.513,33.41-27.513c18.449,0,33.409,12.323,33.409,27.513
	c0,15.203-14.96,27.525-33.409,27.525C238.282,366.53,223.322,354.208,223.322,339.005"/>
</svg>
