<?xml version="1.0" encoding="utf-8"?>

<!-- License Agreement at http://iconmonstr.com/license/ -->

<!DOCTYPE svg PUBLIC "-//W3C//DTD SVG 1.1//EN" "http://www.w3.org/Graphics/SVG/1.1/DTD/svg11.dtd">
<svg version="1.1" xmlns="http://www.w3.org/2000/svg" xmlns:xlink="http://www.w3.org/1999/xlink" x="0px" y="0px"
	 width="512px" height="512px" viewBox="0 0 512 512" enable-background="new 0 0 512 512" xml:space="preserve">
<path id="smiley-happy-icon" d="M356.334,284.334c-27.001,21.333-56.667,34.471-98.334,34.471s-71.333-13.138-98.334-34.471
	l-8.791,8.791C171,323.834,208,356.805,258,356.805s87-32.971,107.125-63.68L356.334,284.334z M256,50C142.229,50,50,142.229,50,256
	c0,113.771,92.229,206,206,206c113.771,0,206-92.229,206-206C462,142.229,369.771,50,256,50z M256,422c-91.74,0-166-74.243-166-166
	c0-91.741,74.244-166,166-166c91.741,0,166,74.243,166,166C422,347.742,347.757,422,256,422z M366.839,222.135
	c-3.373,2.337-14.568,9.787-14.568,9.787s-9.715-18.324-33.716-18.324c-23.332,0-33.716,18.324-33.716,18.324
	s-11.195-7.45-14.568-9.787c5.45-14.444,23.283-38.676,48.284-38.676S361.389,207.69,366.839,222.135z M248.046,222.135
	c-3.373,2.337-14.568,9.787-14.568,9.787s-9.715-18.324-33.716-18.324c-23.332,0-33.716,18.324-33.716,18.324
	s-11.195-7.45-14.568-9.787c5.45-14.444,23.283-38.676,48.284-38.676S242.596,207.69,248.046,222.135z"/>
</svg>
