<?xml version="1.0" encoding="utf-8"?>

<!-- License Agreement at http://iconmonstr.com/license/ -->

<!DOCTYPE svg PUBLIC "-//W3C//DTD SVG 1.1//EN" "http://www.w3.org/Graphics/SVG/1.1/DTD/svg11.dtd">
<svg version="1.1" xmlns="http://www.w3.org/2000/svg" xmlns:xlink="http://www.w3.org/1999/xlink" x="0px" y="0px"
	 width="512px" height="512px" viewBox="0 0 512 512" enable-background="new 0 0 512 512" xml:space="preserve">
<path id="smiley-angry-icon" d="M256,50C142.229,50,50,142.229,50,256c0,113.771,92.229,206,206,206c113.771,0,206-92.229,206-206
	C462,142.229,369.771,50,256,50z M256,422c-91.74,0-166-74.243-166-166c0-91.741,74.244-166,166-166c91.741,0,166,74.243,166,166
	C422,347.742,347.757,422,256,422z M339.699,339.024l-9.978,10.532c-46.486-28.296-95.33-29.015-143,0L176.3,339.024
	c14.634-21.211,45.233-46.943,81.7-46.943S325.066,317.813,339.699,339.024z M199.666,199.5c-17.12,0-31,13.88-31,31s13.88,31,31,31
	c17.121,0,31-13.88,31-31S216.787,199.5,199.666,199.5z M316.333,199.5c-17.121,0-31,13.88-31,31s13.879,31,31,31s31-13.88,31-31
	S333.454,199.5,316.333,199.5z M319,159.173l-61,61l-61-61l17.678-17.678L258,184.817l43.322-43.322L319,159.173z"/>
</svg>
