<?xml version="1.0" encoding="utf-8"?>

<!-- License Agreement at http://iconmonstr.com/license/ -->

<!DOCTYPE svg PUBLIC "-//W3C//DTD SVG 1.1//EN" "http://www.w3.org/Graphics/SVG/1.1/DTD/svg11.dtd">
<svg version="1.1" xmlns="http://www.w3.org/2000/svg" xmlns:xlink="http://www.w3.org/1999/xlink" x="0px" y="0px"
	 width="512px" height="512px" viewBox="0 0 512 512" enable-background="new 0 0 512 512" xml:space="preserve">
<path id="beer-4-icon" d="M337.325,414.349V195.097c18.994-10.198,31.942-30.25,31.942-53.277c0-32.168-25.268-58.548-56.997-60.336
	C299.094,63.114,276.964,50,250.925,50c-16.673,0-33.397,5.523-47.152,16.548c-6.629-2.16-13.608-3.285-20.706-3.285
	c-16.752,0-32.436,6.158-44.449,16.877c-3.118-0.492-6.286-0.743-9.483-0.743c-33.322,0-60.433,27.11-60.433,60.433
	c0,23.966,14.024,44.718,34.296,54.482v220.037c0,11.399-9.241,20.642-20.644,20.642V462h275.615v-27.01
	C346.568,434.99,337.325,425.748,337.325,414.349z M129.134,106.453c6.837,0,13.193,2.062,18.486,5.589
	c6.583-12.89,19.979-21.724,35.446-21.724c10.154,0,19.414,3.81,26.444,10.071c8.487-13.988,23.857-23.333,41.414-23.333
	c21.55,0,39.804,14.087,46.075,33.554c3.68-1.396,7.667-2.167,11.837-2.167c18.434,0,33.375,14.942,33.375,33.376
	c0,18.433-14.941,33.376-33.375,33.376c-10.756,0-20.314-5.09-26.417-12.987c-8.466,7.263-19.463,11.662-31.495,11.662
	c-15.187,0-28.731-6.998-37.606-17.938c-7.297,8.54-18.14,13.959-30.252,13.959c-10.377,0-19.823-3.977-26.907-10.484
	c-6.066,8.359-15.907,13.801-27.025,13.801c-18.433,0-33.377-14.943-33.377-33.377C95.757,121.396,110.701,106.453,129.134,106.453z
	 M174.533,392.353h-25.052V229.355h25.052V392.353z M232.513,392.353h-25.052V229.355h25.052V392.353z M291.133,392.353h-25.052
	V229.355h25.052V392.353z M357.969,388.951v-37.086c54.161-31.412,66.583-107.752,25.104-107.752h-25.104v-33.958h31.278
	C474.785,210.155,454.677,352.398,357.969,388.951z"/>
</svg>
