<?xml version="1.0"?>
<svg xmlns:rdf="http://www.w3.org/1999/02/22-rdf-syntax-ns#" xmlns="http://www.w3.org/2000/svg" xmlns:cc="http://creativecommons.org/ns#" xmlns:xlink="http://www.w3.org/1999/xlink" xmlns:dc="http://purl.org/dc/elements/1.1/" xmlns:svg="http://www.w3.org/2000/svg" id="svg1307" viewBox="0 0 40.906 37" version="1.1">
  <title id="title3004">monkey face simple outline</title>
  <g id="layer1" transform="translate(-350.11 44.549)">
    <path id="path3755" style="color:#000000" d="m253.19-0.84375c-6.8743-0.00000289-12.956 3.9133-14.281 10.062-0.63-0.682-1.36-1.0932-2.16-1.0932-2.1758 0-3.9375 2.9126-3.9375 6.5312 0 3.6187 1.7617 6.5625 3.9375 6.5625 0.15732 0 0.31627-0.0013 0.46875-0.03125-2.4364 7.2182 4.642 14.969 15.969 14.969 11.356 0.000016 18.462-7.797 15.969-15.031 0.2065 0.05579 0.40902 0.09375 0.625 0.09375 2.1758 0 3.9375-2.9438 3.9375-6.5625s-1.7617-6.5312-3.9375-6.5312c-0.85924 0-1.6342 0.47746-2.2812 1.25-1.256-6.2374-7.381-10.219-14.312-10.219zm-6.1875 5c0.11527-0.0071 0.25829 0 0.375 0 2.4509 0 4.6254 1.5949 5.8125 3.9688 1.1871-2.3739 3.3303-3.9688 5.7812-3.9688 3.7348 0 6.7188 3.4603 6.7188 8 0 1.9152-0.50206 3.9142-1.4062 5.3125 2.1133 1.7653 3.4082 3.192 3.4062 6.5312-0.003 5.6078-5.5 10.155-14.5 10.156-9 0.0017-14.497-4.5484-14.5-10.156-0.002-3.3392 1.2617-4.766 3.375-6.5312-0.90419-1.3983-1.375-3.3973-1.375-5.3125 0-4.3978 2.7393-7.7796 6.3125-8zm-9.6875 6.0312c0.49392 0 0.96219 0.18638 1.375 0.5-0.17503 1.9791 0.11585 4.1479 1 6.4688-0.58261 0.62145-1.063 1.2552-1.4688 1.9062-0.28442 0.13347-0.59328 0.21875-0.90625 0.21875-1.6692 0-3-2.0459-3-4.5625s1.3308-4.5312 3-4.5312zm31.906 0c1.6692 0 3 2.0147 3 4.5312 0 2.5166-1.3308 4.5625-3 4.5625-0.39363 0-0.77936-0.1056-1.125-0.3125-0.394-0.6182-0.8521-1.2214-1.4062-1.8125 0.86579-2.2727 1.1521-4.3978 1-6.3438 0.44924-0.39208 0.97455-0.625 1.5312-0.625zm-20.97 0.375c-1.5411 0-2.7812 1.4321-2.7812 3.1875s1.2402 3.1875 2.7812 3.1875c1.5411 0 2.7812-1.4321 2.7812-3.1875s-1.2402-3.1875-2.7812-3.1875zm9.75 0c-1.5411 0-2.8125 1.4321-2.8125 3.1875s1.2714 3.1875 2.8125 3.1875 2.7812-1.4321 2.7812-3.1875-1.2402-3.1875-2.7812-3.1875zm-9.375 0.53125c0.57703 0 1.0625 0.45422 1.0625 1.0312 0 0.57703-0.48547 1.0625-1.0625 1.0625s-1.0312-0.48547-1.0312-1.0625 0.45422-1.0312 1.0312-1.0312zm9.75 0c0.57703 0 1.0312 0.45422 1.0312 1.0312 0 0.57703-0.45422 1.0625-1.0312 1.0625-0.57703 0-1.0625-0.48547-1.0625-1.0625s0.48547-1.0312 1.0625-1.0312zm4.75 12.438a0.66965 0.66965 0 0 0 -0.4 0.219c-2.9737 1.9288-5.9872 3.2653-9.125 3.4688-3.14 0.203-6.42-0.724-10.1-3.469a0.66965 0.66965 0 0 0 -0.53125 -0.125 0.66965 0.66965 0 0 0 -0.28125 1.2188c3.8727 2.8928 7.5376 3.9432 11 3.7188 3.4624-0.22448 6.6701-1.7211 9.75-3.7188a0.67459 0.67459 0 0 0 -0.3125 -1.3125z" fill-rule="evenodd" transform="translate(117.3 -43.706)" fill="#000000"/>
  </g>
  <metadata>
    <rdf:RDF>
      <cc:Work>
        <dc:format>image/svg+xml</dc:format>
        <dc:type rdf:resource="http://purl.org/dc/dcmitype/StillImage"/>
        <cc:license rdf:resource="http://creativecommons.org/licenses/publicdomain/"/>
        <dc:publisher>
          <cc:Agent rdf:about="http://openclipart.org/">
            <dc:title>Openclipart</dc:title>
          </cc:Agent>
        </dc:publisher>
        <dc:title>funny monkey face simple path</dc:title>
        <dc:date>2010-12-27T09:28:58</dc:date>
        <dc:description>A funny monkey face designed to be used on a t-shirt.&#xD;\n</dc:description>
        <dc:source>http://openclipart.org/detail/102055/funny-monkey-face-simple-path-by-martouf</dc:source>
        <dc:creator>
          <cc:Agent>
            <dc:title>Martouf</dc:title>
          </cc:Agent>
        </dc:creator>
        <dc:subject>
          <rdf:Bag>
            <rdf:li>animal</rdf:li>
            <rdf:li>cartoon</rdf:li>
            <rdf:li>clip art</rdf:li>
            <rdf:li>clipart</rdf:li>
            <rdf:li>face</rdf:li>
            <rdf:li>funny</rdf:li>
            <rdf:li>mammal</rdf:li>
            <rdf:li>monkey</rdf:li>
            <rdf:li>outline</rdf:li>
            <rdf:li>path.</rdf:li>
            <rdf:li>shape</rdf:li>
            <rdf:li>singe</rdf:li>
            <rdf:li>t&#xEA;te</rdf:li>
          </rdf:Bag>
        </dc:subject>
      </cc:Work>
      <cc:License rdf:about="http://creativecommons.org/licenses/publicdomain/">
        <cc:permits rdf:resource="http://creativecommons.org/ns#Reproduction"/>
        <cc:permits rdf:resource="http://creativecommons.org/ns#Distribution"/>
        <cc:permits rdf:resource="http://creativecommons.org/ns#DerivativeWorks"/>
      </cc:License>
    </rdf:RDF>
  </metadata>
</svg>
