<?xml version="1.0" encoding="utf-8"?>
<!-- Generator: Adobe Illustrator 13.0.0, SVG Export Plug-In . SVG Version: 6.00 Build 14948)  -->
<!DOCTYPE svg PUBLIC "-//W3C//DTD SVG 1.1//EN" "http://www.w3.org/Graphics/SVG/1.1/DTD/svg11.dtd">
<svg version="1.1" id="Calque_1" xmlns="http://www.w3.org/2000/svg" xmlns:xlink="http://www.w3.org/1999/xlink" x="0px" y="0px"
	 width="512px" height="512px" viewBox="0 0 512 512" enable-background="new 0 0 512 512" xml:space="preserve">
<g id="Calque_1_1_">
	<g display="none">
		<path display="inline" d="M223.843,228.936c0,11.49-9.757,20.801-21.794,20.801l0,0c-12.038,0-21.795-9.312-21.795-20.801v-83.2
			c0-11.488,9.757-20.801,21.795-20.801l0,0c12.038,0,21.794,9.313,21.794,20.801V228.936z"/>
		<path display="inline" d="M326.622,228.936c0,11.49-9.759,20.801-21.794,20.801l0,0c-12.039,0-21.795-9.312-21.795-20.801v-83.2
			c0-11.488,9.758-20.801,21.795-20.801l0,0c12.037,0,21.794,9.313,21.794,20.801V228.936z"/>
		<circle display="inline" fill="#FFFFFF" cx="207.921" cy="144.511" r="9.79"/>
		<circle display="inline" fill="#FFFFFF" cx="310.942" cy="144.511" r="9.786"/>
		<path display="inline" d="M211.838,340.767c0-18.911,18.625-34.255,41.6-34.255c22.97,0,41.595,15.344,41.595,34.255
			c0,18.927-18.623,34.269-41.595,34.269C230.464,375.035,211.838,359.693,211.838,340.767z"/>
	</g>
	<g display="none">
		<path display="inline" d="M68.424,155.276c0-17.565,14.238-31.818,31.817-31.818c17.564,0,31.811,14.252,31.811,31.818
			c0,17.565-14.246,31.817-31.811,31.817C82.662,187.094,68.424,172.841,68.424,155.276z"/>
		<path display="inline" d="M369.415,155.276c0-17.565,14.245-31.818,31.818-31.818c17.571,0,31.818,14.252,31.818,31.818
			c0,17.565-14.247,31.817-31.818,31.817C383.66,187.094,369.415,172.841,369.415,155.276z"/>
		<ellipse display="inline" fill="#FFFFFF" cx="112.472" cy="142.55" rx="9.793" ry="9.785"/>
		<path display="inline" fill="#FFFFFF" d="M404.888,142.55c0-5.406,4.387-9.786,9.794-9.786c5.413,0,9.792,4.38,9.792,9.786
			c0,5.405-4.379,9.786-9.792,9.786C409.275,152.336,404.888,147.956,404.888,142.55z"/>
		
			<line display="inline" fill="none" stroke="#000000" stroke-width="1.7038" stroke-linecap="round" x1="56.689" y1="192.954" x2="151.631" y2="174.113"/>
		
			<line display="inline" fill="none" stroke="#000000" stroke-width="1.7038" stroke-linecap="round" x1="446.499" y1="192.22" x2="351.563" y2="173.378"/>
		<path display="inline" d="M122.509,256.821c2.596,69.343,59.476,124.804,129.449,124.804c69.975,0,126.85-55.461,129.443-124.804
			H122.509z"/>
	</g>
	<g display="none">
		<path display="inline" d="M167.941,292.991c-30.792,32.662-84.963,31.615-120.961-2.341l0,0
			c-36.024-33.945-40.247-87.952-9.449-120.615l42.019-44.564c30.792-32.663,84.957-31.63,120.96,2.323l0,0
			c36.018,33.954,40.241,87.953,9.441,120.615L167.941,292.991z"/>
		<circle display="inline" fill="#FFFFFF" cx="66.115" cy="228.438" r="19.572"/>
		<path display="inline" fill="#FFFFFF" d="M102.005,163.929c-16.088,16.453-14.108,44.464,4.409,62.558l0,0
			c18.532,18.095,46.6,19.429,62.694,2.983l21.959-22.44c16.096-16.454,14.117-44.457-4.408-62.559l0,0
			c-18.532-18.095-46.601-19.429-62.688-2.976L102.005,163.929z"/>
		<path display="inline" d="M338.939,292.991c30.791,32.662,84.963,31.615,120.951-2.341l0,0
			c36.034-33.945,40.249-87.952,9.447-120.615l-42.01-44.564c-30.792-32.663-84.964-31.63-120.967,2.323l0,0
			c-36.019,33.954-40.234,87.953-9.436,120.615L338.939,292.991z"/>
		<path display="inline" fill="#FFFFFF" d="M460.336,228.438c0-10.811-8.768-19.572-19.57-19.572
			c-10.818,0-19.572,8.761-19.572,19.572c0,10.812,8.754,19.58,19.572,19.58C451.568,248.018,460.336,239.25,460.336,228.438z"/>
		<path display="inline" fill="#FFFFFF" d="M404.867,163.929c16.088,16.453,14.116,44.464-4.409,62.558l0,0
			c-18.531,18.095-46.593,19.429-62.694,2.983l-21.952-22.44c-16.104-16.454-14.125-44.457,4.401-62.559l0,0
			c18.54-18.095,46.601-19.429,62.688-2.976L404.867,163.929z"/>
		<path display="inline" fill="#020202" d="M290.876,364.018c-2.596,19.915-15.901,35.138-31.933,35.138
			c-16.02,0-29.333-15.221-31.928-35.138h-11.076c2.84,26.009,21.021,46.148,43.005,46.148c21.995,0,40.177-20.139,43.017-46.148
			H290.876z"/>
	</g>
	<g display="none">
		<path display="inline" fill="#020202" d="M251.104,306.998c-2.595,19.915-15.902,35.131-31.932,35.131
			c-16.016,0-29.336-15.216-31.931-35.131h-11.069c2.839,26.009,21.02,46.14,43,46.14c21.996,0,40.172-20.131,43.012-46.14H251.104z
			"/>
		<path display="inline" fill="#020202" d="M326.966,306.998c-2.596,19.915-15.901,35.131-31.933,35.131
			c-16.015,0-29.334-15.216-31.929-35.131h-11.066c2.838,26.009,21.016,46.14,42.998,46.14c21.994,0,40.175-20.131,43.015-46.14
			H326.966z"/>
		<path display="inline" d="M71.119,178.526c0-17.564,14.247-31.818,31.812-31.818c17.58,0,31.817,14.253,31.817,31.818
			c0,17.565-14.237,31.817-31.817,31.817C85.366,210.343,71.119,196.091,71.119,178.526z"/>
		<path display="inline" d="M372.118,178.526c0-17.564,14.23-31.818,31.811-31.818c17.571,0,31.818,14.253,31.818,31.818
			c0,17.565-14.247,31.817-31.818,31.817C386.349,210.343,372.118,196.091,372.118,178.526z"/>
		<circle display="inline" fill="#FFFFFF" cx="115.168" cy="165.8" r="9.786"/>
		<path display="inline" fill="#FFFFFF" d="M407.583,165.8c0-5.405,4.387-9.786,9.793-9.786c5.408,0,9.801,4.381,9.801,9.786
			c0,5.406-4.393,9.787-9.801,9.787C411.974,175.586,407.583,171.207,407.583,165.8z"/>
	</g>
	<g>
		<g>
			<path d="M139.709,330.644c-27.907,8.21-57.974-10.44-67.141-41.651l0,0c-9.172-31.215,6.021-63.165,33.934-71.357l38.075-11.191
				c27.912-8.205,57.969,10.447,67.135,41.65l0,0c9.178,31.212-6.016,63.157-33.929,71.356L139.709,330.644z"/>
			<ellipse fill="#FFFFFF" cx="165.138" cy="245.352" rx="15.277" ry="15.283"/>
			<path d="M372.072,330.644c27.908,8.21,57.975-10.44,67.142-41.651l0,0c9.178-31.215-6.021-63.165-33.934-71.357l-38.075-11.191
				c-27.91-8.205-57.967,10.447-67.133,41.65l0,0c-9.178,31.212,6.016,63.157,33.929,71.356L372.072,330.644z"/>
			<ellipse fill="#FFFFFF" cx="346.646" cy="245.352" rx="15.274" ry="15.283"/>
			<path d="M255.505,325.765c-0.005-0.122-0.011-0.186-0.011-0.186s-0.241,0.027-0.654,0.084c-0.408-0.057-0.648-0.084-0.648-0.084
				s-0.006,0.063-0.013,0.186c-7.746,1.186-46.869,8.706-33.075,38.02c11.12,19.272,21.069,23.571,27.65,24.533
				c2.121,0.896,4.521,1.443,7.11,1.443c3.14,0,6.037-0.75,8.443-2.025c6.246-1.791,14.592-7.254,24.266-23.951
				C302.36,334.471,263.244,326.95,255.505,325.765z"/>
			<path fill="#020202" d="M237.273,416.951c-9.437,0-18.027-4.719-22.812-8.853c-1.797-1.551-1.995-4.265-0.445-6.062
				c1.557-1.797,4.268-1.998,6.061-0.441c0.851,0.715,18.137,15.052,32.203-0.577c1.601-1.763,4.316-1.909,6.08-0.318
				c1.763,1.588,1.905,4.308,0.317,6.071C251.891,414.299,244.341,416.951,237.273,416.951L237.273,416.951z"/>
			<path fill="#020202" d="M275.486,416.951c-9.438,0-18.027-4.719-22.817-8.853c-1.799-1.551-1.998-4.265-0.449-6.062
				c1.561-1.797,4.275-1.998,6.069-0.441c0.848,0.715,18.143,15.052,32.203-0.577c1.594-1.763,4.309-1.909,6.072-0.318
				c1.764,1.588,1.905,4.308,0.319,6.071C290.102,414.299,282.554,416.951,275.486,416.951L275.486,416.951z"/>
			<path fill="#020202" d="M255.483,410.095c-2.377,0-4.306-1.923-4.306-4.297v-36.283c0-2.374,1.929-4.297,4.306-4.297
				c2.373,0,4.297,1.923,4.297,4.297v36.283C259.78,408.172,257.855,410.095,255.483,410.095L255.483,410.095z"/>
			<path fill="#020202" d="M397.916,6.911c-1.913,7.868-3.039,16.048-3.039,24.504c0,57.23,46.396,103.622,103.623,103.622
				c2.247,0,4.454-0.196,6.663-0.336v-14.409C505.163,59.669,457.691,10.278,397.916,6.911z"/>
			<path fill="#020202" d="M119.715,6.911c1.915,7.868,3.038,16.048,3.038,24.504c0,57.23-46.396,103.622-103.621,103.622
				c-2.249,0-4.449-0.196-6.666-0.336v-14.409C12.467,59.669,59.938,10.278,119.715,6.911z"/>
		</g>
		<path fill="#020202" d="M499.438,217.175v97.989c0,101.586-83.861,184.233-186.934,184.233H199.347
			c-103.113,0-187.002-82.649-187.002-184.233v-97.989H0.884v97.989c0,107.909,89.03,195.693,198.463,195.693h113.158
			c109.396,0,198.389-87.784,198.389-195.693v-97.989H499.438z"/>
		<path fill="#020202" d="M12.351,281.645V120.292c0-59.537,48.436-107.976,107.976-107.976h271.133
			c59.541,0,107.979,48.439,107.979,107.976v161.353h11.455V120.292c0-65.86-53.57-119.437-119.435-119.437H120.325
			C54.468,0.855,0.889,54.432,0.889,120.292v161.353H12.351z"/>
	</g>
</g>
<g id="Calque_2" display="none">
	<g display="inline">
		<path fill="#232323" d="M380.655,31.555H137.251c-56.378,0-102.086,45.702-102.086,102.081v192.89
			c2.623,30.019,11.374,74.455,40.086,78.778c24.004,8.461,29.148,26.326,29.148,26.326s15.434,45.146,44.587,47.023
			c1.07,0.069,1.959,0.24,2.758,0.467h65.662l2.743-2.401l13.721-12.86l10.289,5.999l5.557,9.264h16.563l2.742-2.401l13.722-12.86
			l10.289,5.999l5.556,9.264h67.549c0.799-0.226,1.693-0.396,2.758-0.467c29.159-1.879,44.594-47.023,44.594-47.023
			s5.144-17.865,29.146-26.326c28.772-4.33,37.494-48.946,40.097-78.966V133.636C482.729,77.257,437.039,31.555,380.655,31.555z"/>
		<g>
			<path fill="#FFFFFF" d="M154.648,322.475c-25.054,7.366-52.047-9.379-60.277-37.396l0,0
				c-8.234-28.022,5.406-56.697,30.465-64.052l34.183-10.048c25.059-7.365,52.042,9.375,60.271,37.388l0,0
				c8.239,28.02-5.401,56.697-30.459,64.062L154.648,322.475z"/>
			<path fill="#FFFFFF" d="M363.247,322.475c25.055,7.366,52.048-9.379,60.276-37.396l0,0c8.238-28.022-5.405-56.697-30.466-64.052
				l-34.182-10.048c-25.06-7.365-52.04,9.375-60.271,37.388l0,0c-8.237,28.02,5.4,56.697,30.461,64.062L363.247,322.475z"/>
		</g>
		<path fill="#FFFFFF" d="M332.071,420.17v32.585c0,11.952-9.727,21.667-21.673,21.667c-11.957,0-21.684-9.715-21.684-21.667V420.17
			h-8.089v32.585c0,11.952-9.726,21.667-21.673,21.667c-11.957,0-21.683-9.715-21.683-21.667V420.17h-8.088v32.585
			c0,11.952-9.727,21.667-21.673,21.667c-11.957,0-21.683-9.715-21.683-21.667V420.17h-7.717v32.585
			c0,16.201,13.183,29.385,29.399,29.385c11.063,0,20.698-6.145,25.713-15.191c5.023,9.048,14.669,15.191,25.732,15.191
			c11.062,0,20.697-6.145,25.712-15.191c5.022,9.048,14.67,15.191,25.732,15.191c16.206,0,29.393-13.184,29.393-29.385V420.17
			H332.071z"/>
	</g>
</g>
</svg>
