<?xml version="1.0" encoding="utf-8"?>
<!-- Generator: Adobe Illustrator 13.0.0, SVG Export Plug-In . SVG Version: 6.00 Build 14948)  -->
<!DOCTYPE svg PUBLIC "-//W3C//DTD SVG 1.1//EN" "http://www.w3.org/Graphics/SVG/1.1/DTD/svg11.dtd">
<svg version="1.1" id="Calque_1" xmlns="http://www.w3.org/2000/svg" xmlns:xlink="http://www.w3.org/1999/xlink" x="0px" y="0px"
	 width="512px" height="512px" viewBox="0 0 512 512" enable-background="new 0 0 512 512" xml:space="preserve">
<g id="Calque_2" display="none">
	<g display="inline">
		<path fill="#232323" d="M380.655,31.555H137.251c-56.378,0-102.086,45.702-102.086,102.081v192.89
			c2.623,30.019,11.374,74.455,40.086,78.778c24.004,8.461,29.148,26.326,29.148,26.326s15.434,45.146,44.587,47.023
			c1.07,0.069,1.959,0.24,2.758,0.467h65.662l2.743-2.401l13.721-12.86l10.289,5.999l5.557,9.264h16.563l2.742-2.401l13.722-12.86
			l10.289,5.999l5.556,9.264h67.549c0.799-0.226,1.693-0.396,2.758-0.467c29.159-1.879,44.594-47.023,44.594-47.023
			s5.144-17.865,29.146-26.326c28.772-4.33,37.494-48.946,40.097-78.966V133.636C482.729,77.257,437.039,31.555,380.655,31.555z"/>
		<g>
			<path fill="#FFFFFF" d="M154.648,322.475c-25.054,7.366-52.047-9.379-60.277-37.396l0,0
				c-8.234-28.022,5.406-56.697,30.465-64.052l34.183-10.048c25.059-7.365,52.042,9.375,60.271,37.388l0,0
				c8.239,28.02-5.401,56.697-30.459,64.062L154.648,322.475z"/>
			<path fill="#FFFFFF" d="M363.247,322.475c25.055,7.366,52.048-9.379,60.276-37.396l0,0c8.238-28.022-5.405-56.697-30.466-64.052
				l-34.182-10.048c-25.06-7.365-52.04,9.375-60.271,37.388l0,0c-8.237,28.02,5.4,56.697,30.461,64.062L363.247,322.475z"/>
		</g>
		<path fill="#FFFFFF" d="M332.071,420.17v32.585c0,11.952-9.727,21.667-21.673,21.667c-11.957,0-21.684-9.715-21.684-21.667V420.17
			h-8.089v32.585c0,11.952-9.726,21.667-21.673,21.667c-11.957,0-21.683-9.715-21.683-21.667V420.17h-8.088v32.585
			c0,11.952-9.727,21.667-21.673,21.667c-11.957,0-21.683-9.715-21.683-21.667V420.17h-7.717v32.585
			c0,16.201,13.183,29.385,29.399,29.385c11.063,0,20.698-6.145,25.713-15.191c5.023,9.048,14.669,15.191,25.732,15.191
			c11.062,0,20.697-6.145,25.712-15.191c5.022,9.048,14.67,15.191,25.732,15.191c16.206,0,29.393-13.184,29.393-29.385V420.17
			H332.071z"/>
	</g>
</g>
<g id="Calque_2_1_">
	<g>
		<path fill="#232323" d="M395.528-0.145H117.552c-64.386,0-116.586,52.193-116.586,116.58v220.287
			c2.996,34.283,12.99,85.031,45.78,89.968c27.413,9.663,33.288,30.066,33.288,30.066s17.626,51.558,50.92,53.702
			c1.222,0.079,2.237,0.274,3.15,0.533h74.989l3.132-2.742l15.67-14.688l11.75,6.852l6.346,10.579h18.917l3.132-2.742l15.67-14.688
			l11.751,6.852l6.345,10.579h77.144c0.912-0.258,1.934-0.453,3.149-0.533c33.301-2.146,50.928-53.702,50.928-53.702
			s5.874-20.403,33.286-30.065c32.859-4.945,42.819-55.898,45.792-90.183V116.435C512.101,52.048,459.921-0.145,395.528-0.145z"/>
		<g>
			<path fill="#FFFFFF" d="M137.42,332.096c-28.613,8.413-59.439-10.711-68.838-42.707l0,0c-9.404-32.003,6.173-64.75,34.792-73.15
				l39.038-11.475c28.619-8.411,59.434,10.707,68.832,42.699l0,0c9.409,32-6.168,64.75-34.786,73.162L137.42,332.096z"/>
			<path fill="#FFFFFF" d="M375.647,332.096c28.614,8.413,59.441-10.711,68.838-42.707l0,0c9.409-32.003-6.173-64.75-34.793-73.15
				l-39.036-11.475c-28.619-8.411-59.432,10.707-68.831,42.699l0,0c-9.408,32,6.167,64.75,34.787,73.162L375.647,332.096z"/>
		</g>
		<path fill="#FFFFFF" d="M340.044,443.668v37.213c0,13.649-11.108,24.744-24.751,24.744c-13.655,0-24.764-11.095-24.764-24.744
			v-37.213h-9.238v37.213c0,13.649-11.106,24.744-24.751,24.744c-13.655,0-24.763-11.095-24.763-24.744v-37.213h-9.237v37.213
			c0,13.649-11.108,24.744-24.751,24.744c-13.656,0-24.763-11.095-24.763-24.744v-37.213h-8.813v37.213
			c0,18.502,15.056,33.559,33.575,33.559c12.634,0,23.638-7.018,29.366-17.35c5.736,10.333,16.752,17.35,29.387,17.35
			c12.634,0,23.638-7.018,29.364-17.35c5.735,10.333,16.754,17.35,29.388,17.35c18.508,0,33.567-15.057,33.567-33.559v-37.213
			H340.044z"/>
	</g>
</g>
</svg>
