<?xml version="1.0" encoding="utf-8"?>
<!-- Generator: Adobe Illustrator 14.0.0, SVG Export Plug-In . SVG Version: 6.00 Build 43363)  -->
<!DOCTYPE svg PUBLIC "-//W3C//DTD SVG 1.1//EN" "http://www.w3.org/Graphics/SVG/1.1/DTD/svg11.dtd">
<svg version="1.1" xmlns="http://www.w3.org/2000/svg" xmlns:xlink="http://www.w3.org/1999/xlink" x="0px" y="0px" width="512px"
	 height="512px" viewBox="0 0 512 512" enable-background="new 0 0 512 512" xml:space="preserve">
<g id="Calque_1" display="none">
	<g>
		<path display="inline" d="M230.176,232.755c0,10.115-8.59,18.313-19.188,18.313l0,0c-10.598,0-19.188-8.199-19.188-18.313v-73.249
			c0-10.114,8.59-18.313,19.188-18.313l0,0c10.598,0,19.188,8.199,19.188,18.313V232.755z"/>
		<path display="inline" d="M320.662,232.755c0,10.115-8.592,18.313-19.188,18.313l0,0c-10.598,0-19.188-8.199-19.188-18.313
			v-73.249c0-10.114,8.591-18.313,19.188-18.313l0,0c10.598,0,19.188,8.199,19.188,18.313V232.755z"/>
		<circle display="inline" fill="#FFFFFF" cx="216.158" cy="158.428" r="8.619"/>
		<circle display="inline" fill="#FFFFFF" cx="306.857" cy="158.428" r="8.616"/>
		<path display="inline" d="M219.607,331.21c0-16.65,16.398-30.158,36.624-30.158c20.223,0,36.621,13.508,36.621,30.158
			c0,16.663-16.396,30.17-36.621,30.17C236.005,361.38,219.607,347.873,219.607,331.21z"/>
	</g>
	<g>
		<path display="inline" d="M93.346,167.905c0-15.464,12.535-28.012,28.012-28.012c15.464,0,28.006,12.548,28.006,28.012
			c0,15.464-12.542,28.012-28.006,28.012C105.881,195.917,93.346,183.369,93.346,167.905z"/>
		<path display="inline" d="M358.337,167.905c0-15.464,12.541-28.012,28.013-28.012c15.469,0,28.012,12.548,28.012,28.012
			c0,15.464-12.543,28.012-28.012,28.012C370.878,195.917,358.337,183.369,358.337,167.905z"/>
		<ellipse display="inline" fill="#FFFFFF" cx="132.125" cy="156.701" rx="8.622" ry="8.615"/>
		<path display="inline" fill="#FFFFFF" d="M389.566,156.701c0-4.759,3.863-8.615,8.623-8.615c4.766,0,8.621,3.856,8.621,8.615
			c0,4.759-3.855,8.616-8.621,8.616C393.43,165.317,389.566,161.46,389.566,156.701z"/>
		
			<line display="inline" fill="none" stroke="#000000" stroke-width="1.5" stroke-linecap="round" x1="83.014" y1="201.076" x2="166.601" y2="184.489"/>
		
			<line display="inline" fill="none" stroke="#000000" stroke-width="1.5" stroke-linecap="round" x1="426.201" y1="200.43" x2="342.62" y2="183.842"/>
		<path display="inline" d="M140.962,257.305c2.285,61.048,52.362,109.876,113.966,109.876c61.605,0,111.677-48.828,113.962-109.876
			H140.962z"/>
	</g>
	<g>
		<path display="inline" d="M180.96,289.148c-27.109,28.756-74.801,27.834-106.493-2.06l0,0
			c-31.716-29.886-35.434-77.433-8.319-106.189l36.993-39.234c27.109-28.756,74.795-27.847,106.493,2.045l0,0
			c31.71,29.893,35.428,77.433,8.312,106.189L180.96,289.148z"/>
		<circle display="inline" fill="#FFFFFF" cx="91.313" cy="232.316" r="17.231"/>
		<path display="inline" fill="#FFFFFF" d="M122.91,175.523c-14.164,14.485-12.421,39.146,3.882,55.076l0,0
			c16.316,15.931,41.026,17.105,55.196,2.626l19.333-19.756c14.17-14.486,12.428-39.14-3.881-55.077l0,0
			c-16.316-15.931-41.027-17.105-55.19-2.62L122.91,175.523z"/>
		<path display="inline" d="M331.506,289.148c27.108,28.756,74.801,27.834,106.485-2.06l0,0
			c31.724-29.886,35.435-77.433,8.318-106.189l-36.986-39.234c-27.109-28.756-74.802-27.847-106.499,2.045l0,0
			c-31.71,29.893-35.422,77.433-8.307,106.189L331.506,289.148z"/>
		<path display="inline" fill="#FFFFFF" d="M438.383,232.316c0-9.518-7.719-17.231-17.23-17.231
			c-9.524,0-17.231,7.713-17.231,17.231c0,9.519,7.707,17.238,17.231,17.238C430.664,249.554,438.383,241.835,438.383,232.316z"/>
		<path display="inline" fill="#FFFFFF" d="M389.549,175.523c14.163,14.485,12.428,39.146-3.882,55.076l0,0
			c-16.315,15.931-41.021,17.105-55.196,2.626l-19.326-19.756c-14.178-14.486-12.436-39.14,3.875-55.077l0,0
			c16.322-15.931,41.026-17.105,55.189-2.62L389.549,175.523z"/>
		<path display="inline" fill="#020202" d="M289.191,351.679c-2.285,17.534-14,30.936-28.113,30.936
			c-14.104,0-25.824-13.4-28.109-30.936h-9.751c2.5,22.899,18.506,40.629,37.861,40.629c19.364,0,35.371-17.729,37.871-40.629
			H289.191z"/>
	</g>
	<g>
		<path display="inline" fill="#020202" d="M254.177,301.481c-2.285,17.533-14,30.928-28.113,30.928
			c-14.1,0-25.827-13.395-28.112-30.928h-9.745c2.499,22.897,18.506,40.621,37.857,40.621c19.365,0,35.368-17.724,37.868-40.621
			H254.177z"/>
		<path display="inline" fill="#020202" d="M320.965,301.481c-2.285,17.533-14,30.928-28.113,30.928
			c-14.1,0-25.826-13.395-28.111-30.928h-9.742c2.499,22.897,18.503,40.621,37.854,40.621c19.365,0,35.371-17.724,37.871-40.621
			H320.965z"/>
		<path display="inline" d="M95.719,188.374c0-15.464,12.542-28.012,28.006-28.012c15.477,0,28.012,12.548,28.012,28.012
			s-12.535,28.012-28.012,28.012C108.261,216.386,95.719,203.838,95.719,188.374z"/>
		<path display="inline" d="M360.717,188.374c0-15.464,12.528-28.012,28.006-28.012c15.469,0,28.012,12.548,28.012,28.012
			s-12.543,28.012-28.012,28.012C373.245,216.386,360.717,203.838,360.717,188.374z"/>
		<circle display="inline" fill="#FFFFFF" cx="134.499" cy="177.17" r="8.616"/>
		<path display="inline" fill="#FFFFFF" d="M391.939,177.17c0-4.759,3.863-8.616,8.623-8.616s8.627,3.857,8.627,8.616
			c0,4.759-3.867,8.616-8.627,8.616C395.805,185.786,391.939,181.93,391.939,177.17z"/>
	</g>
	<g display="inline">
		<g>
			<path d="M156.105,322.298c-24.569,7.227-51.04-9.193-59.11-36.67l0,0c-8.075-27.481,5.301-55.61,29.875-62.823l33.521-9.853
				c24.574-7.223,51.036,9.198,59.105,36.669l0,0c8.08,27.479-5.296,55.604-29.871,62.822L156.105,322.298z"/>
			<ellipse fill="#FFFFFF" cx="178.492" cy="247.207" rx="13.45" ry="13.455"/>
			<path d="M360.676,322.298c24.57,7.227,51.041-9.193,59.111-36.67l0,0c8.08-27.481-5.301-55.61-29.875-62.823l-33.521-9.853
				c-24.572-7.223-51.033,9.198-59.103,36.669l0,0c-8.08,27.479,5.296,55.604,29.87,62.822L360.676,322.298z"/>
			<ellipse fill="#FFFFFF" cx="338.291" cy="247.207" rx="13.448" ry="13.455"/>
			<path d="M258.051,318.002c-0.005-0.108-0.01-0.163-0.01-0.163s-0.212,0.024-0.576,0.074c-0.359-0.05-0.571-0.074-0.571-0.074
				s-0.005,0.055-0.011,0.163c-6.82,1.044-41.263,7.665-29.119,33.472c9.79,16.967,18.549,20.752,24.343,21.599
				c1.867,0.788,3.98,1.271,6.259,1.271c2.765,0,5.316-0.661,7.434-1.784c5.499-1.576,12.846-6.385,21.363-21.086
				C299.302,325.667,264.864,319.046,258.051,318.002z"/>
			<path fill="#020202" d="M242,398.282c-8.308,0-15.871-4.154-20.083-7.794c-1.582-1.365-1.757-3.754-0.392-5.336
				c1.37-1.581,3.757-1.759,5.336-0.389c0.749,0.63,15.967,13.252,28.351-0.508c1.409-1.552,3.8-1.681,5.353-0.28
				c1.551,1.398,1.677,3.793,0.279,5.345C254.869,395.947,248.222,398.282,242,398.282L242,398.282z"/>
			<path fill="#020202" d="M275.642,398.282c-8.309,0-15.871-4.154-20.088-7.794c-1.584-1.365-1.759-3.754-0.395-5.336
				c1.374-1.581,3.764-1.759,5.343-0.389c0.746,0.63,15.973,13.252,28.351-0.508c1.404-1.552,3.794-1.681,5.346-0.28
				c1.553,1.398,1.678,3.793,0.281,5.345C288.51,395.947,281.864,398.282,275.642,398.282L275.642,398.282z"/>
			<path fill="#020202" d="M258.031,392.246c-2.092,0-3.791-1.693-3.791-3.783v-31.944c0-2.089,1.699-3.783,3.791-3.783
				c2.089,0,3.784,1.694,3.784,3.783v31.944C261.815,390.553,260.12,392.246,258.031,392.246L258.031,392.246z"/>
			<path fill="#020202" d="M383.429,37.285c-1.685,6.927-2.676,14.129-2.676,21.574c0,50.385,40.848,91.228,91.229,91.228
				c1.979,0,3.921-0.173,5.867-0.296v-12.686C477.849,83.733,436.055,40.25,383.429,37.285z"/>
			<path fill="#020202" d="M138.502,37.285c1.686,6.927,2.675,14.129,2.675,21.574c0,50.385-40.847,91.228-91.228,91.228
				c-1.98,0-3.917-0.173-5.868-0.296v-12.686C44.082,83.733,85.875,40.25,138.502,37.285z"/>
		</g>
		<path fill="#020202" d="M472.809,222.401v86.269c0,89.435-73.831,162.197-164.576,162.197h-99.623
			c-90.78,0-164.636-72.763-164.636-162.197v-86.269H33.884v86.269c0,95.002,78.381,172.287,174.726,172.287h99.623
			c96.312,0,174.661-77.285,174.661-172.287v-86.269H472.809z"/>
		<path fill="#020202" d="M43.979,279.159V137.105c0-52.416,42.643-95.061,95.061-95.061h238.704
			c52.42,0,95.065,42.646,95.065,95.061v142.054h10.085V137.105c0-57.983-47.163-105.151-105.15-105.151H139.039
			c-57.98,0-105.151,47.168-105.151,105.151v142.054H43.979z"/>
	</g>
</g>
<g id="Calque_2">
	<g>
		<path fill="#232323" d="M380.655,31.555H137.251c-56.378,0-102.086,45.702-102.086,102.081v192.89
			c2.623,30.018,11.374,74.454,40.086,78.778c24.004,8.461,29.148,26.326,29.148,26.326s15.434,45.145,44.587,47.023
			c1.07,0.07,1.959,0.241,2.758,0.467h65.662l2.743-2.401l13.721-12.861l10.289,5.999l5.557,9.264h16.564l2.742-2.401l13.721-12.861
			l10.289,5.999l5.556,9.264h67.549c0.799-0.226,1.693-0.396,2.758-0.467c29.159-1.879,44.593-47.023,44.593-47.023
			s5.144-17.865,29.147-26.326c28.772-4.33,37.494-48.947,40.096-78.966V133.636C482.729,77.257,437.039,31.555,380.655,31.555z"/>
		<g>
			<path fill="#FFFFFF" d="M154.648,322.475c-25.054,7.366-52.047-9.379-60.277-37.396l0,0
				c-8.234-28.023,5.406-56.697,30.465-64.052l34.183-10.048c25.059-7.365,52.042,9.375,60.271,37.388l0,0
				c8.239,28.02-5.401,56.697-30.459,64.062L154.648,322.475z"/>
			<path fill="#FFFFFF" d="M363.247,322.475c25.055,7.366,52.048-9.379,60.276-37.396l0,0c8.239-28.023-5.405-56.697-30.465-64.052
				l-34.182-10.048c-25.06-7.365-52.04,9.375-60.27,37.388l0,0c-8.238,28.02,5.4,56.697,30.46,64.062L363.247,322.475z"/>
		</g>
		<path fill="#FFFFFF" d="M332.071,420.17v32.585c0,11.952-9.726,21.667-21.673,21.667c-11.957,0-21.683-9.715-21.683-21.667V420.17
			h-8.089v32.585c0,11.952-9.726,21.667-21.673,21.667c-11.957,0-21.683-9.715-21.683-21.667V420.17h-8.088v32.585
			c0,11.952-9.727,21.667-21.673,21.667c-11.957,0-21.683-9.715-21.683-21.667V420.17h-7.717v32.585
			c0,16.201,13.183,29.385,29.399,29.385c11.063,0,20.698-6.145,25.713-15.192c5.023,9.048,14.669,15.192,25.732,15.192
			c11.062,0,20.698-6.145,25.712-15.192c5.023,9.048,14.67,15.192,25.732,15.192c16.207,0,29.393-13.184,29.393-29.385V420.17
			H332.071z"/>
	</g>
</g>
</svg>
