<?xml version="1.0" encoding="UTF-8" standalone="no"?>
<!-- Created with Inkscape (http://www.inkscape.org/) -->

<svg
   xmlns:dc="http://purl.org/dc/elements/1.1/"
   xmlns:cc="http://creativecommons.org/ns#"
   xmlns:rdf="http://www.w3.org/1999/02/22-rdf-syntax-ns#"
   xmlns:svg="http://www.w3.org/2000/svg"
   xmlns="http://www.w3.org/2000/svg"
   xmlns:xlink="http://www.w3.org/1999/xlink"
   xmlns:sodipodi="http://sodipodi.sourceforge.net/DTD/sodipodi-0.dtd"
   xmlns:inkscape="http://www.inkscape.org/namespaces/inkscape"
   version="1.0"
   width="377.91574"
   height="369.67596"
   id="svg2"
   inkscape:version="0.48.1 "
   sodipodi:docname="lemmling_Cartoon_owl_black_white_line_art_coloring_book_colouring.svg">
  <metadata
     id="metadata42">
    <rdf:RDF>
      <cc:Work
         rdf:about="">
        <dc:format>image/svg+xml</dc:format>
        <dc:type
           rdf:resource="http://purl.org/dc/dcmitype/StillImage" />
      </cc:Work>
    </rdf:RDF>
  </metadata>
  <sodipodi:namedview
     pagecolor="#ffffff"
     bordercolor="#666666"
     borderopacity="1"
     objecttolerance="10"
     gridtolerance="10"
     guidetolerance="10"
     inkscape:pageopacity="0"
     inkscape:pageshadow="2"
     inkscape:window-width="790"
     inkscape:window-height="668"
     id="namedview40"
     showgrid="false"
     inkscape:zoom="0.78717587"
     inkscape:cx="188.95787"
     inkscape:cy="184.83798"
     inkscape:window-x="546"
     inkscape:window-y="120"
     inkscape:window-maximized="0"
     inkscape:current-layer="svg2" />
  <defs
     id="defs4">
    <linearGradient
       id="linearGradient4098">
      <stop
         id="stop4100"
         style="stop-color:#ffb142;stop-opacity:1"
         offset="0" />
      <stop
         id="stop4104"
         style="stop-color:#c87600;stop-opacity:1"
         offset="1" />
    </linearGradient>
    <linearGradient
       x1="346.23685"
       y1="537.41357"
       x2="359.4718"
       y2="537.41357"
       id="linearGradient3211"
       xlink:href="#linearGradient4098"
       gradientUnits="userSpaceOnUse"
       gradientTransform="matrix(0.6414802,0,0,0.778051,125.3732,117.52892)" />
    <linearGradient
       x1="186.21062"
       y1="354.02182"
       x2="186.21059"
       y2="362.27768"
       id="linearGradient3327"
       xlink:href="#linearGradient4098"
       gradientUnits="userSpaceOnUse" />
    <linearGradient
       x1="195.75447"
       y1="354.02182"
       x2="195.75444"
       y2="362.27768"
       id="linearGradient3329"
       xlink:href="#linearGradient4098"
       gradientUnits="userSpaceOnUse" />
    <linearGradient
       x1="176.38606"
       y1="354.02182"
       x2="176.38603"
       y2="362.27768"
       id="linearGradient3331"
       xlink:href="#linearGradient4098"
       gradientUnits="userSpaceOnUse" />
    <linearGradient
       x1="229.43869"
       y1="354.02182"
       x2="229.43866"
       y2="362.27768"
       id="linearGradient3333"
       xlink:href="#linearGradient4098"
       gradientUnits="userSpaceOnUse" />
    <linearGradient
       x1="238.98254"
       y1="354.02182"
       x2="238.98251"
       y2="362.27768"
       id="linearGradient3335"
       xlink:href="#linearGradient4098"
       gradientUnits="userSpaceOnUse" />
    <linearGradient
       x1="219.61412"
       y1="354.02182"
       x2="219.61409"
       y2="362.27768"
       id="linearGradient3337"
       xlink:href="#linearGradient4098"
       gradientUnits="userSpaceOnUse" />
  </defs>
  <path
     inkscape:connector-curvature="0"
     style="fill:#ffffff;fill-opacity:1;fill-rule:nonzero;stroke:#000000;stroke-width:5;stroke-linecap:round;stroke-linejoin:round;stroke-miterlimit:4;stroke-opacity:1;stroke-dasharray:none"
     id="path3226"
     d="m 184,344.15215 a 14.25,23.02381 0 0 1 -28.5,0 14.25,23.02381 0 1 1 28.5,0 z" />
  <path
     inkscape:connector-curvature="0"
     style="fill:#ffffff;fill-opacity:1;fill-rule:nonzero;stroke:#000000;stroke-width:5;stroke-linecap:round;stroke-linejoin:round;stroke-miterlimit:4;stroke-opacity:1;stroke-dasharray:none"
     id="path3228"
     d="m 149.5,344.15215 a 14.25,23.02381 0 0 1 -28.5,0 14.25,23.02381 0 1 1 28.5,0 z" />
  <path
     inkscape:connector-curvature="0"
     style="fill:#ffffff;fill-opacity:1;fill-rule:nonzero;stroke:#000000;stroke-width:5;stroke-linecap:round;stroke-linejoin:round;stroke-miterlimit:4;stroke-opacity:1;stroke-dasharray:none"
     id="path3230"
     d="m 166.5,344.15215 a 14.25,23.02381 0 0 1 -28.5,0 14.25,23.02381 0 1 1 28.5,0 z" />
  <path
     inkscape:connector-curvature="0"
     style="fill:#ffffff;fill-opacity:1;fill-rule:nonzero;stroke:#000000;stroke-width:5;stroke-linecap:round;stroke-linejoin:round;stroke-miterlimit:4;stroke-opacity:1;stroke-dasharray:none"
     id="path3224"
     d="m 261,344.15215 a 14.25,23.02381 0 0 1 -28.5,0 14.25,23.02381 0 1 1 28.5,0 z" />
  <path
     inkscape:connector-curvature="0"
     style="fill:#ffffff;fill-opacity:1;fill-rule:nonzero;stroke:#000000;stroke-width:5;stroke-linecap:round;stroke-linejoin:round;stroke-miterlimit:4;stroke-opacity:1;stroke-dasharray:none"
     id="path3220"
     d="m 226.5,344.15215 a 14.25,23.02381 0 0 1 -28.5,0 14.25,23.02381 0 1 1 28.5,0 z" />
  <path
     inkscape:connector-curvature="0"
     style="fill:#ffffff;fill-opacity:1;fill-rule:nonzero;stroke:#000000;stroke-width:5;stroke-linecap:round;stroke-linejoin:round;stroke-miterlimit:4;stroke-opacity:1;stroke-dasharray:none"
     id="path3222"
     d="m 243.5,344.15215 a 14.25,23.02381 0 0 1 -28.5,0 14.25,23.02381 0 1 1 28.5,0 z" />
  <path
     inkscape:connector-curvature="0"
     style="fill:#ffffff;fill-opacity:1;fill-rule:nonzero;stroke:#000000;stroke-width:5;stroke-linecap:round;stroke-linejoin:miter;stroke-miterlimit:4;stroke-opacity:1;stroke-dasharray:none"
     id="path2385"
     d="m 354.65837,168.06416 a 165.56416,165.56416 0 0 1 -331.12832,0 165.56416,165.56416 0 1 1 331.12832,0 z" />
  <path
     inkscape:connector-curvature="0"
     style="fill:#ffffff;fill-opacity:1;fill-rule:nonzero;stroke:#000000;stroke-width:4.99999952;stroke-linecap:round;stroke-linejoin:round;stroke-miterlimit:4;stroke-opacity:1"
     id="path3167"
     d="m 270.93199,250.8462 c -26.49999,-4.92357 -2.24738,21.63115 -6.31075,31.23273 -16.06336,-7.89842 -9.94271,18.25002 -17.20659,25.51392 -13.76389,-0.7361 -15.91234,13.14323 -25.51392,17.20659 -11.60159,-6.43663 -20.1563,6.31076 -31.23273,6.31076 -11.07642,0 -17.63115,-12.24739 -31.23272,-6.31076 -9.60158,-4.06336 -11.75003,-17.4427 -25.51392,-17.20659 -7.2639,-7.2639 -6.14323,-34.91235 -17.20661,-25.51392 -4.06336,-9.60158 14.68925,-38.1563 -6.31075,-31.23273 0,-11.07643 22.24739,-31.63114 6.31075,-31.23273 4.06338,-9.60157 24.44272,-16.75002 17.20661,-25.51391 14.52778,-14.52778 34.59379,-23.51735 56.74664,-23.51735 22.15286,0 42.21887,8.98957 56.74665,23.51735 -10.73611,5.26389 13.14323,15.91234 17.20659,25.51391 -17.93664,-0.89841 6.31075,20.1563 6.31075,31.23273 z" />
  <path
     inkscape:connector-curvature="0"
     style="fill:#ffffff;fill-opacity:1;fill-rule:evenodd;stroke:#000000;stroke-width:5;stroke-linecap:butt;stroke-linejoin:miter;stroke-miterlimit:4;stroke-opacity:1;stroke-dasharray:none"
     id="path3169"
     d="m 55.73657,131.04499 c 48.1112,17.30003 -14.16343,94.14271 37.81914,161.19179 9.60838,12.39326 -57.86796,2.09077 -81.72278,-66.58505 -23.19831,-66.78576 -1.13236,-107.53908 43.90364,-94.60674 z" />
  <path
     inkscape:connector-curvature="0"
     style="fill:#ffffff;fill-opacity:1;fill-rule:evenodd;stroke:#000000;stroke-width:5;stroke-linecap:butt;stroke-linejoin:miter;stroke-miterlimit:4;stroke-opacity:1;stroke-dasharray:none"
     id="path3800"
     d="m 322.17916,131.04499 c -48.1112,17.30003 14.16343,94.14271 -37.81914,161.19179 -9.60838,12.39326 57.86796,2.09077 81.72278,-66.58505 23.19831,-66.78576 1.13236,-107.53908 -43.90364,-94.60674 z" />
  <path
     inkscape:connector-curvature="0"
     style="fill:#ffffff;fill-opacity:1;fill-rule:evenodd;stroke:#000000;stroke-width:5;stroke-linecap:round;stroke-linejoin:round;stroke-miterlimit:4;stroke-opacity:1;stroke-dasharray:none"
     id="path2413"
     d="m 304.50396,121.99755 c 13.38868,-4.60902 27.22104,7.58384 29.86518,14.17993 -13.51228,-3.45229 -19.71963,-4.4258 -23.21838,-1.38072 1.50674,3.37144 17.40824,6.74191 22.33733,28.87115 -12.42877,-8.61661 -22.30354,-18.57557 -26.27241,-14.48312 2.88158,5.03382 6.19951,14.49739 3.96357,23.88076 -7.14149,-9.42443 -14.43873,-19.37844 -21.14152,-19.64782" />
  <path
     inkscape:connector-curvature="0"
     style="fill:#ffffff;fill-opacity:1;fill-rule:nonzero;stroke:#000000;stroke-width:5;stroke-linecap:round;stroke-linejoin:miter;stroke-miterlimit:4;stroke-opacity:1;stroke-dasharray:none"
     id="path2387"
     d="m 143.14325,40.26401 c -31.23446,0 -56.60334,29.33139 -56.60334,65.47171 0,36.1403 25.36888,65.47171 56.60334,65.47171 18.35565,0 34.64439,-10.1409 44.98476,-25.82946 10.33966,15.69995 26.66388,25.82946 45.02732,25.82946 31.23446,0 56.60332,-29.33142 56.60333,-65.47171 0,-36.1403 -25.36887,-65.4717 -56.60333,-65.47171 -18.3613,0 -34.68747,10.13264 -45.02732,25.82947 C 177.78744,50.4083 161.49657,40.26402 143.14325,40.26401 z" />
  <path
     inkscape:connector-curvature="0"
     style="fill:#ffffff;fill-opacity:1;fill-rule:evenodd;stroke:#000000;stroke-width:5;stroke-linecap:butt;stroke-linejoin:miter;stroke-miterlimit:4;stroke-opacity:1;stroke-dasharray:none"
     id="path2391"
     d="m 187.7214,140.56411 c -9.28799,0 -19.38363,9.3062 -18.97981,15.18379 0.40383,5.8776 16.55686,30.36759 20.19128,30.36759 3.63443,0 17.76833,-24.00019 17.36451,-30.85739 -0.40383,-6.8572 -12.5186,-15.1838 -18.57598,-14.69399 z" />
  <path
     inkscape:connector-curvature="0"
     style="fill:#000000;fill-opacity:1;fill-rule:nonzero;stroke:#000000;stroke-width:5.00000048;stroke-linecap:round;stroke-linejoin:miter;stroke-miterlimit:4;stroke-opacity:1;stroke-dasharray:none"
     id="path2411"
     d="m 184.55222,110.16484 a 16.387107,16.387107 0 1 1 -32.77421,0 16.387107,16.387107 0 1 1 32.77421,0 z" />
  <path
     inkscape:connector-curvature="0"
     style="fill:#ffffff;fill-opacity:1;fill-rule:evenodd;stroke:#000000;stroke-width:5;stroke-linecap:round;stroke-linejoin:round;stroke-miterlimit:4;stroke-opacity:1;stroke-dasharray:none"
     id="path3193"
     d="m 73.14346,121.99755 c -13.38868,-4.60902 -27.22104,7.58384 -29.86518,14.17993 13.51228,-3.45229 19.71963,-4.4258 23.21838,-1.38072 -1.50674,3.37144 -17.40824,6.74191 -22.33733,28.87115 12.42877,-8.61661 22.30354,-18.57557 26.27241,-14.48312 -2.88158,5.03382 -6.19951,14.49739 -3.96357,23.88076 7.14149,-9.42443 14.43873,-19.37844 21.14152,-19.64782" />
  <path
     inkscape:connector-curvature="0"
     style="fill:#ffffff;fill-opacity:1;fill-rule:evenodd;stroke:#000000;stroke-width:5;stroke-linecap:butt;stroke-linejoin:round;stroke-miterlimit:4;stroke-opacity:1;stroke-dasharray:none"
     id="path3283"
     d="m 201.97054,51.28274 c 13.27592,-32.15975 35.66559,-36.51322 35.66559,-36.51322 0,0 -12.4533,16.77531 -1.17397,12.10875 17.4653,-7.22586 72.99675,15.41831 72.99675,15.41831 0,0 -73.57445,-17.12602 -107.48837,8.98616 z" />
  <path
     inkscape:connector-curvature="0"
     style="fill:#ffffff;fill-opacity:1;fill-rule:evenodd;stroke:#000000;stroke-width:5;stroke-linecap:butt;stroke-linejoin:round;stroke-miterlimit:4;stroke-opacity:1;stroke-dasharray:none"
     id="path3285"
     d="M 171.52943,48.28275 C 158.25351,16.12299 135.86384,11.76952 135.86384,11.76952 c 0,0 12.45331,16.77532 1.17398,12.10875 -17.46531,-7.22586 -72.99675,15.41831 -72.99675,15.41831 0,0 73.57444,-17.12602 107.48836,8.98617 z" />
  <path
     inkscape:connector-curvature="0"
     style="fill:#000000;fill-opacity:1;fill-rule:nonzero;stroke:#000000;stroke-width:5.00000048;stroke-linecap:round;stroke-linejoin:miter;stroke-miterlimit:4;stroke-opacity:1;stroke-dasharray:none"
     id="path3301"
     d="m 226.05222,110.16484 a 16.387107,16.387107 0 1 1 -32.77421,0 16.387107,16.387107 0 1 1 32.77421,0 z" />
  <path
     inkscape:connector-curvature="0"
     style="fill:#ffffff;fill-opacity:1;fill-rule:nonzero;stroke:none"
     id="path3341"
     d="m 166.5,104.42595 a 4.25,4.25 0 0 1 -8.5,0 4.25,4.25 0 1 1 8.5,0 z" />
  <path
     inkscape:connector-curvature="0"
     style="fill:#ffffff;fill-opacity:1;fill-rule:nonzero;stroke:none"
     id="path3343"
     d="m 208,104.42595 a 4.25,4.25 0 0 1 -8.5,0 4.25,4.25 0 1 1 8.5,0 z" />
</svg>
